<svg width="150" height="50" viewBox="0 0 150 50" fill="none" xmlns="http://www.w3.org/2000/svg">
  <rect width="150" height="50" rx="25" fill="#0077be"/>
  <path d="M25 15C25 15 30 25 25 35M35 15C35 15 40 25 35 35" stroke="white" stroke-width="2"/>
  <circle cx="30" cy="25" r="10" fill="#ffd700"/>
  <path d="M26 22C26 22 28 20 30 20C32 20 34 22 34 22" stroke="#0077be" stroke-width="2" stroke-linecap="round"/>
  <circle cx="27" cy="25" r="1" fill="#0077be"/>
  <circle cx="33" cy="25" r="1" fill="#0077be"/>
  <path d="M28 29C28 29 29 30 30 30C31 30 32 29 32 29" stroke="#0077be" stroke-width="2" stroke-linecap="round"/>
  <rect x="28" y="10" width="4" height="6" rx="2" fill="white"/>
  <rect x="26" y="35" width="8" height="3" rx="1.5" fill="white"/>
  <text x="55" y="35" font-family="Arial, sans-serif" font-size="24" fill="white">Medi-Genie</text>
</svg>

